<?xml version="1.0" standalone="no"?>
<!DOCTYPE svg PUBLIC "-//W3C//DTD SVG 20010904//EN"
 "http://www.w3.org/TR/2001/REC-SVG-20010904/DTD/svg10.dtd">
<svg version="1.0" xmlns="http://www.w3.org/2000/svg"
 width="48.000000pt" height="48.000000pt" viewBox="0 0 48.000000 48.000000"
 preserveAspectRatio="xMidYMid meet">

<g transform="translate(0.000000,48.000000) scale(0.100000,-0.100000)"
fill="#000000" stroke="none">
<path d="M314 438 c-26 -32 -29 -33 -128 -38 l-101 -5 -3 -97 c-3 -94 -3 -97
-37 -134 -32 -35 -35 -43 -35 -101 l0 -63 233 2 232 3 3 233 2 232 -69 0 c-66
0 -71 -2 -97 -32z m-124 -59 c-35 -14 -70 -49 -86 -84 -13 -29 -13 -28 -14 33
l0 62 63 -1 c51 0 58 -2 37 -10z m208 -143 l-3 -151 -151 -3 -151 -3 -1 73
c-1 57 1 67 8 44 17 -54 45 -73 111 -75 36 -1 71 5 89 14 33 17 60 61 60 98 0
12 5 28 11 34 21 21 -29 91 -81 112 -20 8 -12 10 43 9 l68 -1 -3 -151z m-121
113 l28 -11 -25 -16 c-13 -10 -50 -36 -81 -59 -31 -24 -62 -43 -68 -43 -32 0
7 93 51 120 38 23 55 24 95 9z"/>
</g>
</svg>
